<svg width="302" height="44" viewBox="0 0 302 44" fill="none" xmlns="http://www.w3.org/2000/svg">
<rect x="138" y="18" width="8" height="8" rx="4" fill="white"/>
<rect x="138" y="34" width="8" height="8" rx="4" fill="white"/>
<path fill-rule="evenodd" clip-rule="evenodd" d="M6 2C3.79086 2 2 3.79086 2 6V14V22C2 24.2091 3.79086 26 6 26V26C6.96977 26 8.0111 26.1324 8.69683 26.8182L9.18185 27.3032C9.86758 27.9889 10 29.0302 10 30V30C10 32.2091 11.7909 34 14 34V34C14.9698 34 16.0111 34.1324 16.6968 34.8182L17.1818 35.3032C17.8676 35.9889 18 37.0302 18 38V38C18 40.2091 19.7909 42 22 42H30C32.2091 42 34 40.2091 34 38V38C34 37.0302 34.1324 35.9889 34.8181 35.3032L35.3032 34.8182C35.9889 34.1324 37.0302 34 38 34V34V34C38.9698 34 40.0111 34.1324 40.6968 34.8182L41.1818 35.3032C41.8676 35.9889 42 37.0302 42 38V38C42 40.2091 43.7909 42 46 42H54C56.2091 42 58 40.2091 58 38V38C58 37.0302 58.1324 35.9889 58.8182 35.3032L59.3032 34.8182C59.9889 34.1324 61.0302 34 62 34V34C64.2091 34 66 32.2091 66 30V30C66 29.0302 66.1324 27.9889 66.8182 27.3032L67.3032 26.8182C67.9889 26.1324 69.0302 26 70 26V26C72.2091 26 74 24.2091 74 22V14V6C74 3.79086 72.2091 2 70 2C67.7909 2 66 3.79086 66 6V14V22V22C66 22.9698 65.8676 24.0111 65.1818 24.6968L64.6968 25.1818C64.0111 25.8676 62.9698 26 62 26V26C59.7909 26 58 27.7909 58 30V30C58 30.9698 57.8676 32.0111 57.1818 32.6968L56.6968 33.1818C56.0111 33.8676 54.9698 34 54 34V34H46V34C45.0302 34 43.9889 33.8676 43.3032 33.1818L42.8182 32.6968C42.1324 32.0111 42 30.9698 42 30V30V22V14V6C42 3.79086 40.2091 2 38 2C35.7909 2 34 3.79086 34 6V14V22V30V30C34 30.9698 33.8676 32.0111 33.1818 32.6968L32.6968 33.1818C32.0111 33.8676 30.9698 34 30 34V34H22V34C21.0302 34 19.9889 33.8676 19.3032 33.1818L18.8182 32.6968C18.1324 32.0111 18 30.9698 18 30V30C18 27.7909 16.2091 26 14 26V26C13.0302 26 11.9889 25.8676 11.3032 25.1818L10.8182 24.6968C10.1324 24.0111 10 22.9698 10 22V22V14V6C10 3.79086 8.20914 2 6 2Z" fill="white"/>
<path fill-rule="evenodd" clip-rule="evenodd" d="M82 6C82 3.79086 83.7909 2 86 2H94H102H110H118C120.209 2 122 3.79086 122 6V6C122 6.96977 122.132 8.0111 122.818 8.69683L123.303 9.18185C123.989 9.86758 125.03 10 126 10V10C128.209 10 130 11.7909 130 14C130 16.2091 128.209 18 126 18V18C125.03 18 123.989 18.1324 123.303 18.8182L122.818 19.3032C122.132 19.9889 122 21.0302 122 22V22V22C122 22.9698 122.132 24.0111 122.818 24.6968L123.303 25.1818C123.989 25.8676 125.03 26 126 26V26C128.209 26 130 27.7909 130 30C130 32.2091 128.209 34 126 34V34C125.03 34 123.989 34.1324 123.303 34.8182L122.818 35.3032C122.132 35.9889 122 37.0302 122 38V38C122 40.2091 120.209 42 118 42H110H102H94H86C83.7909 42 82 40.2091 82 38C82 35.7909 83.7909 34 86 34H94H102H110H118V34C118.97 34 120.011 33.8676 120.697 33.1818L121.182 32.6968C121.868 32.0111 122 30.9698 122 30V30V30C122 29.0302 121.868 27.9889 121.182 27.3032L120.697 26.8182C120.011 26.1324 118.97 26 118 26V26H110H102H94H86C83.7909 26 82 24.2091 82 22C82 19.7909 83.7909 18 86 18H94H102H110H118V18C118.97 18 120.011 17.8676 120.697 17.1818L121.182 16.6968C121.868 16.0111 122 14.9698 122 14V14V14C122 13.0302 121.868 11.9889 121.182 11.3032L120.697 10.8182C120.011 10.1324 118.97 10 118 10V10H110H102H94H86C83.7909 10 82 8.20914 82 6Z" fill="white"/>
<path fill-rule="evenodd" clip-rule="evenodd" d="M162 6C162 3.79086 163.791 2 166 2H174H182H190C192.209 2 194 3.79086 194 6V6C194 6.96977 194.132 8.0111 194.818 8.69683L195.303 9.18185C195.989 9.86758 197.03 10 198 10V10C200.209 10 202 11.7909 202 14C202 16.2091 200.209 18 198 18C195.791 18 194 16.2091 194 14V14C194 13.0302 193.868 11.9889 193.182 11.3032L192.697 10.8182C192.011 10.1324 190.97 10 190 10V10H182H174H166V10C165.03 10 163.989 10.1324 163.303 10.8181L162.818 11.3032C162.132 11.9889 162 13.0302 162 14V14V22V30V30C162 30.9698 162.132 32.0111 162.818 32.6968L163.303 33.1818C163.989 33.8676 165.03 34 166 34V34H174H182H190V34C190.97 34 192.011 33.8676 192.697 33.1818L193.182 32.6968C193.868 32.0111 194 30.9698 194 30V30C194 27.7909 195.791 26 198 26C200.209 26 202 27.7909 202 30C202 32.2091 200.209 34 198 34V34C197.03 34 195.989 34.1324 195.303 34.8182L194.818 35.3032C194.132 35.9889 194 37.0302 194 38V38C194 40.2091 192.209 42 190 42H182H174H166C163.791 42 162 40.2091 162 38V38C162 37.0302 161.868 35.9889 161.182 35.3032L160.697 34.8182C160.011 34.1324 158.97 34 158 34V34C155.791 34 154 32.2091 154 30V22V14C154 11.7909 155.791 10 158 10V10C158.97 10 160.011 9.86758 160.697 9.18185L161.182 8.69683C161.868 8.0111 162 6.96977 162 6V6Z" fill="white"/>
<path d="M224.44 4.50023H222.04L219.36 16.6802L216.56 4.50023H214.32L218 19.0002H220.48L223.22 7.08024L226.02 19.0002H228.5L232.12 4.50023H229.98L227.3 16.6802L224.44 4.50023Z" fill="white"/>
<path d="M234.278 19.0002H244.118V17.2402H236.318V12.4202H243.658V10.6602H236.318V6.26023H244.118V4.50023H234.278V19.0002Z" fill="white"/>
<path d="M246.663 19.0002H252.383C255.283 19.0002 257.583 17.8002 257.583 14.7202C257.583 12.9402 256.763 11.8602 255.383 11.2802C256.403 10.7002 256.983 9.46023 256.983 8.08024C256.983 5.20023 254.583 4.50023 251.883 4.50023H246.663V19.0002ZM248.703 12.3202H252.283C254.463 12.3202 255.483 13.0402 255.483 14.7402C255.483 16.4002 254.483 17.2802 252.403 17.2802H248.703V12.3202ZM248.703 6.22023H252.203C253.823 6.22023 254.923 6.86023 254.923 8.36023C254.923 10.0602 253.883 10.7002 252.203 10.7002H248.703V6.22023Z" fill="white"/>
<path d="M264.141 17.7402C262.081 17.7402 261.061 16.5002 260.841 14.7202H258.961C259.181 17.1402 260.681 19.2602 264.121 19.2602C266.901 19.2602 269.361 17.8402 269.361 14.9202C269.361 13.3802 268.761 11.9802 266.601 11.2802C268.121 10.6602 268.961 9.42023 268.961 7.92023C268.961 5.26023 266.761 4.24023 264.261 4.24023C261.221 4.24023 259.401 6.02023 259.181 8.58024H261.061C261.221 6.92023 262.281 5.76023 264.221 5.76023C265.761 5.76023 267.041 6.58023 267.041 8.12023C267.041 9.82023 265.721 10.5202 263.181 10.5202H262.941V12.1802H263.241C265.561 12.1802 267.421 12.8602 267.421 14.9402C267.421 16.7602 266.061 17.7402 264.141 17.7402Z" fill="white"/>
<path d="M225.9 37.3802C225.44 39.2402 224.04 40.5402 221.72 40.5402C219.02 40.5402 217.1 38.4002 217.1 34.7202C217.1 30.9602 219.1 28.9602 221.66 28.9602C223.96 28.9602 225.4 30.3002 225.82 32.1202H227.8C227.16 29.0202 224.76 27.2402 221.76 27.2402C217.68 27.2402 215.02 30.2402 215.02 34.7202C215.02 39.1202 217.44 42.2602 221.6 42.2602C224.74 42.2602 227.24 40.5802 227.88 37.3802H225.9Z" fill="white"/>
<path d="M228.437 42.0002H230.517L231.637 38.8602H238.297L239.437 42.0002H241.637L236.177 27.5002H233.817L228.437 42.0002ZM234.937 29.5602L237.657 37.1202H232.257L234.937 29.5602Z" fill="white"/>
<path d="M251.68 42.0002L255.68 29.3602V42.0002H257.72V27.5002H254.3L250.6 39.5802L246.9 27.5002H243.48V42.0002H245.52V29.3602L249.52 42.0002H251.68Z" fill="white"/>
<path d="M261.276 27.5002V42.0002H263.316V36.2602H265.816C269.356 36.2602 271.836 35.4802 271.836 31.8802C271.836 28.3002 269.356 27.5002 265.816 27.5002H261.276ZM265.976 29.2202C268.116 29.2202 269.756 29.5202 269.756 31.8802C269.756 34.2602 268.116 34.4802 265.976 34.4802H263.316V29.2202H265.976Z" fill="white"/>
<path d="M273.89 27.5002V36.1002C273.89 40.6202 275.65 42.2602 279.67 42.2602C283.89 42.2602 285.51 40.1802 285.51 35.9402V27.5002H283.47V36.1002C283.47 38.9602 282.45 40.5002 279.67 40.5002C276.95 40.5002 275.93 39.1802 275.93 36.3202V27.5002H273.89Z" fill="white"/>
<path d="M288.259 31.2002C288.259 33.6002 290.239 34.7202 292.239 35.1602L294.039 35.5402C295.839 35.9602 297.159 36.5602 297.159 38.1002C297.159 39.5402 295.939 40.5402 293.779 40.5402C291.539 40.5402 290.159 39.5002 289.779 37.5002H287.779C288.159 40.3802 290.319 42.2602 293.739 42.2602C296.619 42.2602 299.259 40.7402 299.259 37.9202C299.259 35.0002 296.599 34.1602 294.379 33.6802L292.699 33.3002C291.339 33.0002 290.339 32.3602 290.339 31.0802C290.339 29.4602 292.299 28.9602 293.419 28.9602C294.859 28.9602 296.539 29.5402 297.019 31.2002H298.999C298.419 28.4202 296.119 27.2402 293.499 27.2402C291.159 27.2402 288.259 28.4202 288.259 31.2002Z" fill="white"/>
</svg>
