<svg width="303" height="32" viewBox="0 0 303 32" fill="none" xmlns="http://www.w3.org/2000/svg">
<g clip-path="url(#clip0_856_695)">
<path d="M3.65254 25H5.77754L8.07754 17.525L10.3775 25H12.5025L14.7025 13.25V7.5H12.2275V12.5L11.0275 19.175L9.12754 12H7.02754L5.12754 19.175L3.92754 12.5V7.5H1.45254V13.25L3.65254 25ZM17.4758 25H27.4758V22.5H19.9758V17.075H26.5008V14.575H19.9758V10H27.4758V7.5H17.4758V25ZM29.9758 25H36.4758C38.9758 25 40.9758 23 40.9758 20.5V19.5C40.9758 18.075 40.3258 16.825 39.3258 16C40.0508 15.225 40.4758 14.15 40.4758 13V12C40.4758 9.5 38.4758 7.5 35.9758 7.5H29.9758V25ZM32.4758 22.5V17.5H36.4758C37.6008 17.5 38.4758 18.375 38.4758 19.5V20.5C38.4758 21.625 37.6008 22.5 36.4758 22.5H32.4758ZM32.4758 15V10H35.9758C37.1008 10 37.9758 10.875 37.9758 12V13C37.9758 14.125 37.1008 15 35.9758 15H32.4758Z" fill="white"/>
<path d="M83.85 25H85.85C88.35 25 90.35 22.95 90.35 20.475V19.1H87.85V20.475C87.85 21.575 86.95 22.475 85.85 22.475H83.85C82.75 22.475 81.85 21.575 81.85 20.475V12C81.85 10.9 82.725 10 83.85 10H85.85C86.975 10 87.85 10.875 87.85 12V13.375H90.35V12C90.35 9.5 88.35 7.5 85.85 7.5H83.85C81.375 7.5 79.35 9.5 79.35 12V20.475C79.35 22.95 81.375 25 83.85 25ZM92.2301 25H94.7301V20.95H100.98V25H103.48V19.25L99.1051 7.5H96.6051L92.2301 19.25V25ZM95.2051 18.45L97.8301 11.45H97.8801L100.505 18.45H95.2051ZM105.942 25H108.442V12.45L111.517 18.45H112.867L115.942 12.45V25H118.442V7.5H115.792L112.192 14.525L108.592 7.5H105.942V25ZM121.542 25H124.042V18H128.042C130.542 18 132.542 16 132.542 13.5V12C132.542 9.5 130.542 7.5 128.042 7.5H121.542V25ZM124.042 15.5V10H128.042C129.167 10 130.042 10.875 130.042 12V13.5C130.042 14.625 129.167 15.5 128.042 15.5H124.042ZM139.248 25H141.498C143.973 25 145.998 22.95 145.998 20.475V7.5H143.498V20.475C143.498 21.575 142.598 22.475 141.498 22.475H139.248C138.148 22.475 137.248 21.575 137.248 20.475V7.5H134.748V20.475C134.748 22.95 136.748 25 139.248 25ZM153.082 25H154.757C157.407 25 159.432 23.1 159.432 20.6C159.432 15.325 151.182 14.3 151.182 11.65C151.182 10.625 151.982 10 153.332 10H154.507C155.707 10 156.682 10.95 156.682 12.15V12.9H159.182V12.15C159.182 9.575 157.082 7.5 154.507 7.5H153.332C150.607 7.5 148.682 9.2 148.682 11.65C148.682 16.4 156.932 17.15 156.932 20.6C156.932 21.7 156.032 22.5 154.757 22.5H153.082C151.907 22.5 150.932 21.525 150.932 20.35V19.35H148.432V20.35C148.432 22.925 150.507 25 153.082 25Z" fill="white"/>
<path fill-rule="evenodd" clip-rule="evenodd" d="M51.1111 1.33333C51.1111 0.596954 51.7081 0 52.4444 0H54.6667H58.2222H61.7778H65.3333H67.5556C68.2919 0 68.8889 0.596955 68.8889 1.33333V2.22221C68.8889 2.95859 69.4858 3.55555 70.2222 3.55555H71.1111C71.8475 3.55555 72.4444 4.1525 72.4444 4.88888V5.77777C72.4444 6.51415 73.0414 7.1111 73.7778 7.1111H74.6667C75.403 7.1111 76 7.70806 76 8.44444V10.6667V14.2222V17.7778V21.3333V23.5556C76 24.2919 75.403 24.8889 74.6667 24.8889H73.7778C73.0414 24.8889 72.4444 25.4858 72.4444 26.2222V27.1111C72.4444 27.8475 71.8475 28.4444 71.1111 28.4444H70.2222C69.4858 28.4444 68.8889 29.0414 68.8889 29.7778V30.6667C68.8889 31.403 68.2919 32 67.5556 32H65.3333H61.7778H58.2222H54.6667H52.4444C51.7081 32 51.1111 31.403 51.1111 30.6667V29.7778C51.1111 29.0414 50.5142 28.4444 49.7778 28.4444H48.8889C48.1525 28.4444 47.5556 27.8475 47.5556 27.1111V26.2222C47.5556 25.4858 46.9586 24.8889 46.2222 24.8889H45.3333C44.597 24.8889 44 24.2919 44 23.5556V21.3333V17.7778V14.2222V10.6667V8.44444C44 7.70806 44.597 7.1111 45.3333 7.1111H46.2222C46.9586 7.1111 47.5556 6.51415 47.5556 5.77777V4.88888C47.5556 4.1525 48.1525 3.55555 48.8889 3.55555H49.7778C50.5142 3.55555 51.1111 2.95859 51.1111 2.22221L51.1111 1.33333ZM64 28.4444C64.7364 28.4444 65.3333 27.8475 65.3333 27.1111V24.8889H67.5556C68.2919 24.8889 68.8889 24.2919 68.8889 23.5556V21.3333V19.1111C68.8889 18.3747 68.2919 17.7778 67.5556 17.7778H65.3333V14.2222H67.5556C68.2919 14.2222 68.8889 13.6253 68.8889 12.8889V10.6667V8.44444C68.8889 7.70806 68.2919 7.1111 67.5556 7.1111H65.3333V4.88889C65.3333 4.15251 64.7364 3.55556 64 3.55556H61.7778H58.2222H56C55.2636 3.55556 54.6667 4.15251 54.6667 4.88889V7.1111H52.4444C51.7081 7.1111 51.1111 7.70806 51.1111 8.44444V9.33333C51.1111 10.0697 51.7081 10.6667 52.4444 10.6667H53.3333C54.0697 10.6667 54.6667 10.0697 54.6667 9.33333V7.1111H58.2222H61.7778H65.3333V10.6667V14.2222H61.7778H59.5556C58.8192 14.2222 58.2222 14.8192 58.2222 15.5555V16.4444C58.2222 17.1808 58.8192 17.7778 59.5556 17.7778H61.7778H65.3333V21.3333V24.8889H61.7778H58.2222H54.6667V22.6667C54.6667 21.9303 54.0697 21.3333 53.3333 21.3333H52.4444C51.7081 21.3333 51.1111 21.9303 51.1111 22.6667V23.5556C51.1111 24.2919 51.7081 24.8889 52.4444 24.8889H54.6667V27.1111C54.6667 27.8475 55.2636 28.4444 56 28.4444H58.2222H61.7778H64Z" fill="white"/>
<g opacity="0.4" clip-path="url(#clip1_856_695)">
<path d="M205.456 5.24152V13.2802H207.037V10.4528H208.242C210.099 10.4528 211.724 9.95388 211.724 7.90261C211.724 5.47436 209.834 5.24152 208.198 5.24152H205.456ZM208.231 6.48336C209.082 6.48336 210.099 6.59424 210.099 7.9137C210.099 8.97814 209.314 9.22207 208.341 9.22207H207.037V6.48336H208.231Z" fill="white"/>
<path d="M214.274 9.25477C214.274 7.36982 215.313 6.36082 216.562 6.36082C217.811 6.36082 218.85 7.36982 218.85 9.25477C218.85 11.1508 217.811 12.1598 216.562 12.1598C215.313 12.1598 214.274 11.1508 214.274 9.25477ZM220.486 9.25477C220.486 6.75999 218.95 5.0968 216.562 5.0968C214.174 5.0968 212.638 6.75999 212.638 9.25477C212.638 11.7495 214.174 13.4238 216.562 13.4238C218.95 13.4238 220.486 11.7495 220.486 9.25477Z" fill="white"/>
<path d="M227.101 5.24152H225.255L224.139 11.0959L222.945 5.24152H221.309L223.088 13.2802H224.957L226.173 7.29278L227.389 13.2802H229.257L231.037 5.24152H229.423L228.328 11.1292L227.101 5.24152Z" fill="white"/>
<path d="M232.249 13.2802H238.086V11.994H233.83V9.80973H237.854V8.52354H233.83V6.52771H238.086V5.24152H232.249V13.2802Z" fill="white"/>
<path d="M244.367 13.2802H246.125L244.345 9.79864C245.351 9.36622 245.793 8.61224 245.793 7.68085C245.793 5.99549 244.787 5.24152 242.145 5.24152H239.514V13.2802H241.095V10.1313H242.399H242.775L244.367 13.2802ZM242.322 6.48336C243.394 6.48336 244.168 6.76056 244.168 7.69194C244.168 8.49027 243.638 8.90052 242.399 8.90052H241.095V6.48336H242.322Z" fill="white"/>
<path d="M247.438 13.2802H253.274V11.994H249.018V9.80973H253.042V8.52354H249.018V6.52771H253.274V5.24152H247.438V13.2802Z" fill="white"/>
<path d="M259.898 9.25534C259.898 11.6836 258.472 12.0384 257.013 12.0384H256.283V6.48336H257.013C258.472 6.48336 259.898 6.84926 259.898 9.25534ZM254.702 5.24152V13.2802H257.079C259.621 13.2802 261.534 12.4487 261.534 9.25534C261.534 6.06202 259.621 5.24152 257.079 5.24152H254.702Z" fill="white"/>
<path d="M266.026 13.2802H269.276C270.923 13.2802 272.349 12.6371 272.349 10.9074C272.349 9.79864 271.774 9.33295 271.155 9.03358C271.564 8.76747 272.062 8.09111 272.062 7.33713C272.062 5.68503 270.547 5.24152 269.143 5.24152H266.026V13.2802ZM267.607 9.75429H269.287C270.271 9.75429 270.735 10.1535 270.735 10.9074C270.735 11.6503 270.282 12.0384 269.353 12.0384H267.607V9.75429ZM267.607 6.48336H269.243C269.983 6.48336 270.437 6.86035 270.437 7.49236C270.437 8.20199 269.994 8.5568 269.243 8.5568H267.607V6.48336Z" fill="white"/>
<path d="M272.688 5.24152L275.573 10.1535V13.2802H277.154V10.1756L280.105 5.24152H278.303L276.402 8.60115L274.534 5.24152H272.688Z" fill="white"/>
<path d="M210.894 25.4243C210.629 26.522 209.855 26.9433 208.905 26.9433C207.755 26.9433 206.815 25.9232 206.815 24.005C206.815 22.1422 207.755 21.1443 208.96 21.1443C209.844 21.1443 210.596 21.5102 210.894 22.6301H212.398C212.133 20.9558 210.85 19.8803 208.971 19.8803C206.638 19.8803 205.179 21.4659 205.179 24.005C205.179 26.5774 206.539 28.2073 208.927 28.2073C210.839 28.2073 212.188 27.0542 212.398 25.4243H210.894Z" fill="white"/>
<path d="M215.245 24.0383C215.245 22.1533 216.284 21.1443 217.533 21.1443C218.782 21.1443 219.822 22.1533 219.822 24.0383C219.822 25.9343 218.782 26.9433 217.533 26.9433C216.284 26.9433 215.245 25.9343 215.245 24.0383ZM221.458 24.0383C221.458 21.5435 219.921 19.8803 217.533 19.8803C215.145 19.8803 213.609 21.5435 213.609 24.0383C213.609 26.5331 215.145 28.2073 217.533 28.2073C219.921 28.2073 221.458 26.5331 221.458 24.0383Z" fill="white"/>
<path d="M224.599 20.025H223.019V28.0637H224.599V20.025Z" fill="white"/>
<path d="M233.238 28.0637V20.025H231.745V26.1566L228.54 20.025H226.483V28.0637H227.976V21.9321L231.182 28.0637H233.238Z" fill="white"/>
<path d="M236.921 28.0637H238.502V21.3112H240.978V20.025H234.456V21.3112H236.921V28.0637Z" fill="white"/>
<path d="M242.189 28.0637H248.026V26.7775H243.77V24.5932H247.794V23.307H243.77V21.3112H248.026V20.025H242.189V28.0637Z" fill="white"/>
<path d="M251.036 20.025H249.455V28.0637H254.938V26.7775H251.036V20.025Z" fill="white"/>
<path d="M256.095 28.0637H261.932V26.7775H257.676V24.5932H261.699V23.307H257.676V21.3112H261.932V20.025H256.095V28.0637Z" fill="white"/>
<path d="M267.006 19.8803C264.552 19.8803 263.082 21.5102 263.082 24.005C263.082 26.5774 264.486 28.2073 266.741 28.2073C267.88 28.2073 268.698 27.786 269.151 27.1207L269.195 28.0632H270.444V23.7943H266.984V25.0916H268.985V25.2247C268.985 26.5109 267.836 26.9433 266.984 26.9433C265.614 26.9433 264.718 25.9232 264.718 24.005C264.718 22.0868 265.658 21.1443 266.995 21.1443C267.891 21.1443 268.665 21.5768 268.919 22.4638H270.422C270.157 20.978 268.897 19.8803 267.006 19.8803Z" fill="white"/>
<path d="M277.118 28.0637H278.875L277.096 24.5821C278.101 24.1497 278.544 23.3957 278.544 22.4643C278.544 20.7789 277.538 20.025 274.896 20.025H272.265V28.0637H273.845V24.9147H275.15H275.526L277.118 28.0637ZM275.073 21.2668C276.145 21.2668 276.919 21.544 276.919 22.4754C276.919 23.2737 276.388 23.684 275.15 23.684H273.845V21.2668H275.073Z" fill="white"/>
<path d="M279.471 28.0637H281.085L281.648 26.4338H284.766L285.33 28.0637H287.043L284.047 20.025H282.455L279.471 28.0637ZM283.207 21.9653L284.313 25.1365H282.102L283.207 21.9653Z" fill="white"/>
<path d="M288.199 20.025V28.0637H289.779V25.2363H290.984C292.841 25.2363 294.466 24.7373 294.466 22.6861C294.466 20.2578 292.576 20.025 290.94 20.025H288.199ZM290.973 21.2668C291.824 21.2668 292.841 21.3777 292.841 22.6971C292.841 23.7616 292.056 24.0055 291.083 24.0055H289.779V21.2668H290.973Z" fill="white"/>
<path d="M300.873 20.025V23.307H297.281V20.025H295.7V28.0637H297.281V24.5932H300.873V28.0637H302.454V20.025H300.873Z" fill="white"/>
<path fill-rule="evenodd" clip-rule="evenodd" d="M188.478 11.9837C188.478 10.0966 187.365 8.45146 185.697 7.30451C184.028 6.15663 181.758 5.46767 179.283 5.46767C176.807 5.46767 174.537 6.15663 172.868 7.30451C171.201 8.45146 170.087 10.0966 170.087 11.9837V20.1752C170.087 22.4197 171.201 24.2819 172.868 25.4289C174.537 26.5767 176.807 27.2657 179.283 27.2657C181.758 27.2657 184.028 26.5767 185.697 25.4289C187.365 24.2819 188.478 22.6368 188.478 20.7497V11.9837ZM171.483 11.9837C171.483 10.6433 172.272 9.36641 173.68 8.39826C175.086 7.43103 177.065 6.81178 179.283 6.81178C181.501 6.81178 183.479 7.43103 184.886 8.39826C186.293 9.36641 187.082 10.6433 187.082 11.9837C187.082 13.3241 186.293 14.601 184.886 15.5691C183.479 16.5364 181.501 17.1556 179.283 17.1556C177.065 17.1556 175.086 16.5364 173.68 15.5691C172.272 14.601 171.483 13.3241 171.483 11.9837ZM187.029 21.352C186.644 21.7769 186.196 22.1641 185.697 22.5069C184.028 23.6547 181.758 24.3437 179.283 24.3437C176.807 24.3437 174.537 23.6547 172.868 22.5069C172.37 22.1641 171.921 21.7769 171.537 21.352C171.736 22.4688 172.485 23.5132 173.68 24.3351C175.086 25.3023 177.065 25.9216 179.283 25.9216C181.501 25.9216 183.479 25.3023 184.886 24.3351C186.081 23.5132 186.83 22.4688 187.029 21.352ZM173.68 21.4131C172.485 20.5912 171.736 19.5469 171.537 18.43C171.921 18.8549 172.37 19.2421 172.868 19.5849C174.537 20.7328 176.807 21.4217 179.283 21.4217C181.758 21.4217 184.028 20.7328 185.697 19.5849C186.196 19.2421 186.644 18.8549 187.029 18.43C186.83 19.5469 186.081 20.5912 184.886 21.4131C183.479 22.3803 181.501 22.9996 179.283 22.9996C177.065 22.9996 175.086 22.3803 173.68 21.4131ZM187.029 15.508C186.644 15.9329 186.196 16.3201 185.697 16.6629C184.028 17.8108 181.758 18.4997 179.283 18.4997C176.807 18.4997 174.537 17.8108 172.868 16.6629C172.37 16.3201 171.921 15.9329 171.537 15.508C171.736 16.6249 172.485 17.6693 173.68 18.4911C175.086 19.4584 177.065 20.0776 179.283 20.0776C181.501 20.0776 183.479 19.4584 184.886 18.4911C186.081 17.6693 186.83 16.6249 187.029 15.508Z" fill="url(#paint0_linear_856_695)"/>
<path d="M187.363 23.3182L184.188 31.1096L197.452 17.6692L189.773 19.0133L191.169 15.6532H196.056L198.848 9.605H182.094L180 15.6532H185.235L182.094 25.0614L187.363 23.3182Z" fill="white"/>
</g>
</g>
<defs>
<linearGradient id="paint0_linear_856_695" x1="175.762" y1="14.9642" x2="185.151" y2="17.1311" gradientUnits="userSpaceOnUse">
<stop stop-color="white"/>
<stop offset="1" stop-color="white" stop-opacity="0"/>
</linearGradient>
<clipPath id="clip0_856_695">
<rect width="303" height="32" fill="white"/>
</clipPath>
<clipPath id="clip1_856_695">
<rect width="134" height="28" fill="white" transform="translate(169 4)"/>
</clipPath>
</defs>
</svg>
