<svg width="330" height="44" viewBox="0 0 330 44" fill="none" xmlns="http://www.w3.org/2000/svg">
<rect x="138" y="18" width="8" height="8" rx="4" fill="white"/>
<rect x="138" y="34" width="8" height="8" rx="4" fill="white"/>
<path fill-rule="evenodd" clip-rule="evenodd" d="M6 2C3.79086 2 2 3.79086 2 6V14V22C2 24.2091 3.79086 26 6 26V26C6.96977 26 8.0111 26.1324 8.69683 26.8182L9.18185 27.3032C9.86758 27.9889 10 29.0302 10 30V30C10 32.2091 11.7909 34 14 34V34C14.9698 34 16.0111 34.1324 16.6968 34.8182L17.1818 35.3032C17.8676 35.9889 18 37.0302 18 38V38C18 40.2091 19.7909 42 22 42H30C32.2091 42 34 40.2091 34 38V38C34 37.0302 34.1324 35.9889 34.8181 35.3032L35.3032 34.8182C35.9889 34.1324 37.0302 34 38 34V34V34C38.9698 34 40.0111 34.1324 40.6968 34.8182L41.1818 35.3032C41.8676 35.9889 42 37.0302 42 38V38C42 40.2091 43.7909 42 46 42H54C56.2091 42 58 40.2091 58 38V38C58 37.0302 58.1324 35.9889 58.8182 35.3032L59.3032 34.8182C59.9889 34.1324 61.0302 34 62 34V34C64.2091 34 66 32.2091 66 30V30C66 29.0302 66.1324 27.9889 66.8182 27.3032L67.3032 26.8182C67.9889 26.1324 69.0302 26 70 26V26C72.2091 26 74 24.2091 74 22V14V6C74 3.79086 72.2091 2 70 2C67.7909 2 66 3.79086 66 6V14V22V22C66 22.9698 65.8676 24.0111 65.1818 24.6968L64.6968 25.1818C64.0111 25.8676 62.9698 26 62 26V26C59.7909 26 58 27.7909 58 30V30C58 30.9698 57.8676 32.0111 57.1818 32.6968L56.6968 33.1818C56.0111 33.8676 54.9698 34 54 34V34H46V34C45.0302 34 43.9889 33.8676 43.3032 33.1818L42.8182 32.6968C42.1324 32.0111 42 30.9698 42 30V30V22V14V6C42 3.79086 40.2091 2 38 2C35.7909 2 34 3.79086 34 6V14V22V30V30C34 30.9698 33.8676 32.0111 33.1818 32.6968L32.6968 33.1818C32.0111 33.8676 30.9698 34 30 34V34H22V34C21.0302 34 19.9889 33.8676 19.3032 33.1818L18.8182 32.6968C18.1324 32.0111 18 30.9698 18 30V30C18 27.7909 16.2091 26 14 26V26C13.0302 26 11.9889 25.8676 11.3032 25.1818L10.8182 24.6968C10.1324 24.0111 10 22.9698 10 22V22V14V6C10 3.79086 8.20914 2 6 2Z" fill="white"/>
<path fill-rule="evenodd" clip-rule="evenodd" d="M82 6C82 3.79086 83.7909 2 86 2H94H102H110H118C120.209 2 122 3.79086 122 6V6C122 6.96977 122.132 8.0111 122.818 8.69683L123.303 9.18185C123.989 9.86758 125.03 10 126 10V10C128.209 10 130 11.7909 130 14C130 16.2091 128.209 18 126 18V18C125.03 18 123.989 18.1324 123.303 18.8182L122.818 19.3032C122.132 19.9889 122 21.0302 122 22V22V22C122 22.9698 122.132 24.0111 122.818 24.6968L123.303 25.1818C123.989 25.8676 125.03 26 126 26V26C128.209 26 130 27.7909 130 30C130 32.2091 128.209 34 126 34V34C125.03 34 123.989 34.1324 123.303 34.8182L122.818 35.3032C122.132 35.9889 122 37.0302 122 38V38C122 40.2091 120.209 42 118 42H110H102H94H86C83.7909 42 82 40.2091 82 38C82 35.7909 83.7909 34 86 34H94H102H110H118V34C118.97 34 120.011 33.8676 120.697 33.1818L121.182 32.6968C121.868 32.0111 122 30.9698 122 30V30V30C122 29.0302 121.868 27.9889 121.182 27.3032L120.697 26.8182C120.011 26.1324 118.97 26 118 26V26H110H102H94H86C83.7909 26 82 24.2091 82 22C82 19.7909 83.7909 18 86 18H94H102H110H118V18C118.97 18 120.011 17.8676 120.697 17.1818L121.182 16.6968C121.868 16.0111 122 14.9698 122 14V14V14C122 13.0302 121.868 11.9889 121.182 11.3032L120.697 10.8182C120.011 10.1324 118.97 10 118 10V10H110H102H94H86C83.7909 10 82 8.20914 82 6Z" fill="white"/>
<path fill-rule="evenodd" clip-rule="evenodd" d="M162 6C162 3.79086 163.791 2 166 2H174H182H190C192.209 2 194 3.79086 194 6V6C194 6.96977 194.132 8.0111 194.818 8.69683L195.303 9.18185C195.989 9.86758 197.03 10 198 10V10C200.209 10 202 11.7909 202 14C202 16.2091 200.209 18 198 18C195.791 18 194 16.2091 194 14V14C194 13.0302 193.868 11.9889 193.182 11.3032L192.697 10.8182C192.011 10.1324 190.97 10 190 10V10H182H174H166V10C165.03 10 163.989 10.1324 163.303 10.8181L162.818 11.3032C162.132 11.9889 162 13.0302 162 14V14V22V30V30C162 30.9698 162.132 32.0111 162.818 32.6968L163.303 33.1818C163.989 33.8676 165.03 34 166 34V34H174H182H190V34C190.97 34 192.011 33.8676 192.697 33.1818L193.182 32.6968C193.868 32.0111 194 30.9698 194 30V30C194 27.7909 195.791 26 198 26C200.209 26 202 27.7909 202 30C202 32.2091 200.209 34 198 34V34C197.03 34 195.989 34.1324 195.303 34.8182L194.818 35.3032C194.132 35.9889 194 37.0302 194 38V38C194 40.2091 192.209 42 190 42H182H174H166C163.791 42 162 40.2091 162 38V38C162 37.0302 161.868 35.9889 161.182 35.3032L160.697 34.8182C160.011 34.1324 158.97 34 158 34V34C155.791 34 154 32.2091 154 30V22V14C154 11.7909 155.791 10 158 10V10C158.97 10 160.011 9.86758 160.697 9.18185L161.182 8.69683C161.868 8.0111 162 6.96977 162 6V6Z" fill="white"/>
<path d="M211.205 2.84997V13H212.633V8.98197H214.383C216.861 8.98197 218.597 8.43597 218.597 5.91597C218.597 3.40997 216.861 2.84997 214.383 2.84997H211.205ZM214.495 4.05397C215.993 4.05397 217.141 4.26397 217.141 5.91597C217.141 7.58197 215.993 7.73597 214.495 7.73597H212.633V4.05397H214.495Z" fill="white"/>
<path d="M221.155 7.91797C221.155 5.29997 222.611 3.87197 224.459 3.87197C226.307 3.87197 227.763 5.29997 227.763 7.91797C227.763 10.536 226.307 11.978 224.459 11.978C222.611 11.978 221.155 10.536 221.155 7.91797ZM229.219 7.91797C229.219 4.85197 227.385 2.66797 224.459 2.66797C221.533 2.66797 219.699 4.85197 219.699 7.91797C219.699 10.984 221.533 13.182 224.459 13.182C227.385 13.182 229.219 10.984 229.219 7.91797Z" fill="white"/>
<path d="M237.178 2.84997H235.498L233.622 11.376L231.662 2.84997H230.094L232.67 13H234.406L236.324 4.65597L238.284 13H240.02L242.554 2.84997H241.056L239.18 11.376L237.178 2.84997Z" fill="white"/>
<path d="M244.064 13H250.952V11.768H245.492V8.39397H250.63V7.16197H245.492V4.08197H250.952V2.84997H244.064V13Z" fill="white"/>
<path d="M258.922 13H260.518L258.166 8.49197C259.412 8.15597 260.182 7.38597 260.182 5.77597C260.182 3.33997 258.418 2.84997 255.954 2.84997H252.734V13H254.162V8.72997H255.954C256.22 8.72997 256.458 8.72997 256.724 8.71597L258.922 13ZM256.066 4.05397C257.564 4.05397 258.712 4.23597 258.712 5.80397C258.712 7.37197 257.564 7.52597 256.066 7.52597H254.162V4.05397H256.066Z" fill="white"/>
<path d="M262.32 13H269.208V11.768H263.748V8.39397H268.886V7.16197H263.748V4.08197H269.208V2.84997H262.32V13Z" fill="white"/>
<path d="M277.836 7.91797C277.836 11.376 275.806 11.796 273.72 11.796H272.418V4.05397H273.72C275.806 4.05397 277.836 4.47397 277.836 7.91797ZM270.99 2.84997V13H273.762C276.968 13 279.292 11.782 279.292 7.91797C279.292 4.06797 276.968 2.84997 273.762 2.84997H270.99Z" fill="white"/>
<path d="M211.205 27H215.209C217.239 27 218.849 26.16 218.849 24.004C218.849 22.758 218.275 22.002 217.309 21.596C218.023 21.19 218.429 20.322 218.429 19.356C218.429 17.34 216.749 16.85 214.859 16.85H211.205V27ZM212.633 22.324H215.139C216.665 22.324 217.379 22.828 217.379 24.018C217.379 25.18 216.679 25.796 215.223 25.796H212.633V22.324ZM212.633 18.054H215.083C216.217 18.054 216.987 18.502 216.987 19.552C216.987 20.742 216.259 21.19 215.083 21.19H212.633V18.054Z" fill="white"/>
<path d="M219.286 16.85L222.87 23.038V27H224.298V23.066L228.022 16.85H226.454L223.626 21.806L220.854 16.85H219.286Z" fill="white"/>
<path d="M218.331 37.766C218.009 39.068 217.029 39.978 215.405 39.978C213.515 39.978 212.171 38.48 212.171 35.904C212.171 33.272 213.571 31.872 215.363 31.872C216.973 31.872 217.981 32.81 218.275 34.084H219.661C219.213 31.914 217.533 30.668 215.433 30.668C212.577 30.668 210.715 32.768 210.715 35.904C210.715 38.984 212.409 41.182 215.321 41.182C217.519 41.182 219.269 40.006 219.717 37.766H218.331Z" fill="white"/>
<path d="M222.413 35.918C222.413 33.3 223.869 31.872 225.717 31.872C227.565 31.872 229.021 33.3 229.021 35.918C229.021 38.536 227.565 39.978 225.717 39.978C223.869 39.978 222.413 38.536 222.413 35.918ZM230.477 35.918C230.477 32.852 228.643 30.668 225.717 30.668C222.791 30.668 220.957 32.852 220.957 35.918C220.957 38.984 222.791 41.182 225.717 41.182C228.643 41.182 230.477 38.984 230.477 35.918Z" fill="white"/>
<path d="M233.91 30.85H232.482V41H233.91V30.85Z" fill="white"/>
<path d="M244.57 41V30.85H243.142V39.488L238.508 30.85H236.408V41H237.836V32.334L242.484 41H244.57Z" fill="white"/>
<path d="M249.16 41H250.588V32.082H253.892V30.85H245.856V32.082H249.16V41Z" fill="white"/>
<path d="M255.183 41H262.071V39.768H256.611V36.394H261.749V35.162H256.611V32.082H262.071V30.85H255.183V41Z" fill="white"/>
<path d="M265.281 30.85H263.853V41H270.643V39.768H265.281V30.85Z" fill="white"/>
<path d="M271.935 41H278.823V39.768H273.363V36.394H278.501V35.162H273.363V32.082H278.823V30.85H271.935V41Z" fill="white"/>
<path d="M284.833 30.668C281.977 30.668 280.115 32.768 280.115 35.904C280.115 38.984 281.795 41.182 284.707 41.182C286.065 41.182 287.255 40.776 287.913 39.726L287.983 41H289.103V35.82H285.071V37.052H287.759V37.318C287.759 39.418 286.107 39.978 284.763 39.978C282.901 39.978 281.571 38.48 281.571 35.904C281.571 33.272 282.971 31.872 284.763 31.872C286.387 31.872 287.311 32.67 287.647 33.804H289.033C288.613 31.844 286.933 30.668 284.833 30.668Z" fill="white"/>
<path d="M297.651 41H299.247L296.895 36.492C298.141 36.156 298.911 35.386 298.911 33.776C298.911 31.34 297.147 30.85 294.683 30.85H291.463V41H292.891V36.73H294.683C294.949 36.73 295.187 36.73 295.453 36.716L297.651 41ZM294.795 32.054C296.293 32.054 297.441 32.236 297.441 33.804C297.441 35.372 296.293 35.526 294.795 35.526H292.891V32.054H294.795Z" fill="white"/>
<path d="M299.981 41H301.437L302.221 38.802H306.883L307.681 41H309.221L305.399 30.85H303.747L299.981 41ZM304.531 32.292L306.435 37.584H302.655L304.531 32.292Z" fill="white"/>
<path d="M310.512 30.85V41H311.94V36.982H313.69C316.168 36.982 317.904 36.436 317.904 33.916C317.904 31.41 316.168 30.85 313.69 30.85H310.512ZM313.802 32.054C315.3 32.054 316.448 32.264 316.448 33.916C316.448 35.582 315.3 35.736 313.802 35.736H311.94V32.054H313.802Z" fill="white"/>
<path d="M326.258 30.85V35.162H320.924V30.85H319.496V41H320.924V36.394H326.258V41H327.686V30.85H326.258Z" fill="white"/>
</svg>
