<svg width="204" height="44" viewBox="0 0 204 44" fill="none" xmlns="http://www.w3.org/2000/svg">
<rect x="138" y="18" width="8" height="8" rx="4" fill="white"/>
<rect x="138" y="34" width="8" height="8" rx="4" fill="white"/>
<path fill-rule="evenodd" clip-rule="evenodd" d="M6 2C3.79086 2 2 3.79086 2 6V14V22C2 24.2091 3.79086 26 6 26V26C6.96977 26 8.0111 26.1324 8.69683 26.8182L9.18185 27.3032C9.86758 27.9889 10 29.0302 10 30V30C10 32.2091 11.7909 34 14 34V34C14.9698 34 16.0111 34.1324 16.6968 34.8182L17.1818 35.3032C17.8676 35.9889 18 37.0302 18 38V38C18 40.2091 19.7909 42 22 42H30C32.2091 42 34 40.2091 34 38V38C34 37.0302 34.1324 35.9889 34.8181 35.3032L35.3032 34.8182C35.9889 34.1324 37.0302 34 38 34V34V34C38.9698 34 40.0111 34.1324 40.6968 34.8182L41.1818 35.3032C41.8676 35.9889 42 37.0302 42 38V38C42 40.2091 43.7909 42 46 42H54C56.2091 42 58 40.2091 58 38V38C58 37.0302 58.1324 35.9889 58.8182 35.3032L59.3032 34.8182C59.9889 34.1324 61.0302 34 62 34V34C64.2091 34 66 32.2091 66 30V30C66 29.0302 66.1324 27.9889 66.8182 27.3032L67.3032 26.8182C67.9889 26.1324 69.0302 26 70 26V26C72.2091 26 74 24.2091 74 22V14V6C74 3.79086 72.2091 2 70 2C67.7909 2 66 3.79086 66 6V14V22V22C66 22.9698 65.8676 24.0111 65.1818 24.6968L64.6968 25.1818C64.0111 25.8676 62.9698 26 62 26V26C59.7909 26 58 27.7909 58 30V30C58 30.9698 57.8676 32.0111 57.1818 32.6968L56.6968 33.1818C56.0111 33.8676 54.9698 34 54 34V34H46V34C45.0302 34 43.9889 33.8676 43.3032 33.1818L42.8182 32.6968C42.1324 32.0111 42 30.9698 42 30V30V22V14V6C42 3.79086 40.2091 2 38 2C35.7909 2 34 3.79086 34 6V14V22V30V30C34 30.9698 33.8676 32.0111 33.1818 32.6968L32.6968 33.1818C32.0111 33.8676 30.9698 34 30 34V34H22V34C21.0302 34 19.9889 33.8676 19.3032 33.1818L18.8182 32.6968C18.1324 32.0111 18 30.9698 18 30V30C18 27.7909 16.2091 26 14 26V26C13.0302 26 11.9889 25.8676 11.3032 25.1818L10.8182 24.6968C10.1324 24.0111 10 22.9698 10 22V22V14V6C10 3.79086 8.20914 2 6 2Z" fill="white"/>
<path fill-rule="evenodd" clip-rule="evenodd" d="M82 6C82 3.79086 83.7909 2 86 2H94H102H110H118C120.209 2 122 3.79086 122 6V6C122 6.96977 122.132 8.0111 122.818 8.69683L123.303 9.18185C123.989 9.86758 125.03 10 126 10V10C128.209 10 130 11.7909 130 14C130 16.2091 128.209 18 126 18V18C125.03 18 123.989 18.1324 123.303 18.8182L122.818 19.3032C122.132 19.9889 122 21.0302 122 22V22V22C122 22.9698 122.132 24.0111 122.818 24.6968L123.303 25.1818C123.989 25.8676 125.03 26 126 26V26C128.209 26 130 27.7909 130 30C130 32.2091 128.209 34 126 34V34C125.03 34 123.989 34.1324 123.303 34.8182L122.818 35.3032C122.132 35.9889 122 37.0302 122 38V38C122 40.2091 120.209 42 118 42H110H102H94H86C83.7909 42 82 40.2091 82 38C82 35.7909 83.7909 34 86 34H94H102H110H118V34C118.97 34 120.011 33.8676 120.697 33.1818L121.182 32.6968C121.868 32.0111 122 30.9698 122 30V30V30C122 29.0302 121.868 27.9889 121.182 27.3032L120.697 26.8182C120.011 26.1324 118.97 26 118 26V26H110H102H94H86C83.7909 26 82 24.2091 82 22C82 19.7909 83.7909 18 86 18H94H102H110H118V18C118.97 18 120.011 17.8676 120.697 17.1818L121.182 16.6968C121.868 16.0111 122 14.9698 122 14V14V14C122 13.0302 121.868 11.9889 121.182 11.3032L120.697 10.8182C120.011 10.1324 118.97 10 118 10V10H110H102H94H86C83.7909 10 82 8.20914 82 6Z" fill="white"/>
<path fill-rule="evenodd" clip-rule="evenodd" d="M162 6C162 3.79086 163.791 2 166 2H174H182H190C192.209 2 194 3.79086 194 6V6C194 6.96977 194.132 8.0111 194.818 8.69683L195.303 9.18185C195.989 9.86758 197.03 10 198 10V10C200.209 10 202 11.7909 202 14C202 16.2091 200.209 18 198 18C195.791 18 194 16.2091 194 14V14C194 13.0302 193.868 11.9889 193.182 11.3032L192.697 10.8182C192.011 10.1324 190.97 10 190 10V10H182H174H166V10C165.03 10 163.989 10.1324 163.303 10.8181L162.818 11.3032C162.132 11.9889 162 13.0302 162 14V14V22V30V30C162 30.9698 162.132 32.0111 162.818 32.6968L163.303 33.1818C163.989 33.8676 165.03 34 166 34V34H174H182H190V34C190.97 34 192.011 33.8676 192.697 33.1818L193.182 32.6968C193.868 32.0111 194 30.9698 194 30V30C194 27.7909 195.791 26 198 26C200.209 26 202 27.7909 202 30C202 32.2091 200.209 34 198 34V34C197.03 34 195.989 34.1324 195.303 34.8182L194.818 35.3032C194.132 35.9889 194 37.0302 194 38V38C194 40.2091 192.209 42 190 42H182H174H166C163.791 42 162 40.2091 162 38V38C162 37.0302 161.868 35.9889 161.182 35.3032L160.697 34.8182C160.011 34.1324 158.97 34 158 34V34C155.791 34 154 32.2091 154 30V22V14C154 11.7909 155.791 10 158 10V10C158.97 10 160.011 9.86758 160.697 9.18185L161.182 8.69683C161.868 8.0111 162 6.96977 162 6V6Z" fill="white"/>
</svg>
